# xmcd
#
# Track frame offsets: 
#        150
#        12944
#        25854
#        38598
#        51100
#        62006
#        74570
#        87339
#        99894
#        112227
#        124661
#        137688
#        150917
#        163098
#        175083
#        186550
#        200416
#        211861
#        224563
#        236971
#        248812
#        261333
#        273498
#        285462
#        296404
#
# Disc length: 4123 seconds
#
# Revision: 1
# Processed by: cddbd v1.5.2PL0 Copyright (c) Steve Scherf et al.
# Submitted via: ExactAudioCopy v0.99pb5
#
DISCID=76101919
DTITLE=Various Artist - Stompin' Singers and Western Swingers - CD1
DYEAR=2005
DGENRE=Country
TTITLE0=Bill Boyd - Mama Don't Like No Music (1934)
TTITLE1=Bob Wills - Mean Mama Blues (1936)
TTITLE2=Bob Wills - Rosetta (1937)
TTITLE3=Jimmie Revard - Crafton Blues (1937)
TTITLE4=Jimmie Revard - Triflin' Gal (1937)
TTITLE5=Leon Chappelear - I'm A Do Right Papa (1935)
TTITLE6=Leon Chappelear - White River Stomp (1935)
TTITLE7=Light Crust Doughboys - Little Hillbilly Heart Throb (1935)
TTITLE8=Light Crust Doughboys - Oh Susannah (1936)
TTITLE9=Ocie Stockard - There'll Be Some Changes Made (1937)
TTITLE10=Roy Newman - I Can't Dance (I've Got Ants In My Pants) (1936)
TTITLE11=Prairie Ramblers - The Lady In Red (1935)
TTITLE12=Sweet Violet Boys - Round And Round (Yas Yas Yas) (1937)
TTITLE13=Roy Newman - Mary Lou (1937)
TTITLE14=Shelly Lee Alley - Try It Once Again (1938)
TTITLE15=Modern Mountaineers - Getting That Lowdown Swing (1937)
TTITLE16=Smokey Wood and Wood Chips - Woodchip Blues (1937)
TTITLE17=Sons of the West - There's Evil In You Chillun (1938)
TTITLE18=Sons of the West - Oh Monah (1938)
TTITLE19=Tune Wranglers - Up Jumped The Devil (1936)
TTITLE20=Wanderers - Tiger Rag (1935)
TTITLE21=Universal Cowboys - Hot Mama Stomp (1939)
TTITLE22=Bar X Cowboys - Underneath The Sun (1937)
TTITLE23=Adolph Hofner - It's Best To Behave (1938)
TTITLE24=Bill Boyd - She's Doggin' Me (1937)
EXTD=YEAR: 2005
EXTT0=
EXTT1=
EXTT2=
EXTT3=
EXTT4=
EXTT5=
EXTT6=
EXTT7=
EXTT8=
EXTT9=
EXTT10=
EXTT11=
EXTT12=
EXTT13=
EXTT14=
EXTT15=
EXTT16=
EXTT17=
EXTT18=
EXTT19=
EXTT20=
EXTT21=
EXTT22=
EXTT23=
EXTT24=
PLAYORDER=
